<?xml version="1.0" encoding="utf-8"?>
<!-- Generator: Adobe Illustrator 26.0.3, SVG Export Plug-In . SVG Version: 6.00 Build 0)  -->
<svg version="1.1" id="レイヤー_1" xmlns="http://www.w3.org/2000/svg" xmlns:xlink="http://www.w3.org/1999/xlink" x="0px"
	 y="0px" viewBox="0 0 24 24" style="enable-background:new 0 0 24 24;" xml:space="preserve">
<style type="text/css">
	.st0{fill-rule:evenodd;clip-rule:evenodd;fill:#FFFFFF;}
</style>
<path class="st0" d="M8.3,1.3L6.7,2.1C0.9,5.1,9.5,23,16,23c0.5,0,0.9-0.1,1.3-0.3l1.5-0.8L16,16.4l-1.5,0.8
	c-0.2,0.1-0.4,0.1-0.6,0.1c-2.6,0-6.8-8.2-4.2-9.6l1.5-0.8C11.1,6.9,8.3,1.3,8.3,1.3z M16,24C10.3,24,3.8,12.9,3.8,6.2
	c0-2.4,0.8-4.1,2.5-5L8.6,0l3.9,7.3L10,8.5c-1.4,0.8,2.4,8.4,4,7.7l2.4-1.2l3.8,7.4c0,0-2.4,1.2-2.5,1.2C17.2,23.9,16.6,24,16,24"/>
</svg>
