<svg xmlns="http://www.w3.org/2000/svg" viewBox="0 0 435.95 435.95"><defs><style>.cls-1{fill:#ddecf2;}</style></defs><g id="Capa_2" data-name="Capa 2"><g id="グレー"><path class="cls-1" d="M424.3,289.59c.68-2,1.4-3.91,2-5.91s1.15-4,1.73-6c-34.77-19-32.95-27.83,6.5-31.31q.79-6,1.25-12c-37.9-11.35-37.87-20.1.14-31q-.4-5.91-1.11-11.75c-39.39-3.58-41-12-5.83-30q-1.5-5.64-3.32-11.19c-39.3,4.12-42.5-3.78-11.36-28.09Q411.78,117.1,409,112c-37.77,11.56-42.41,4.4-16.49-25.43q-3.5-4.65-7.25-9.13C350.33,96,344.35,89.81,364,55.5c-2.92-2.62-5.92-5.18-9-7.65-30.76,24.85-37.94,19.86-25.5-17.69q-5.17-3.07-10.55-5.87C293.49,54.61,285.22,51,289.6,11.64c-2-.67-3.92-1.39-5.91-2s-4-1.16-6-1.73c-19,34.77-27.84,33-31.32-6.5q-6-.79-12-1.25C223,38,214.26,38,203.32,0c-3.94.26-7.85.64-11.75,1.11-3.58,39.38-12,41-30,5.82Q156,8.45,150.43,10.25c4.12,39.31-3.79,42.51-28.09,11.37Q117.1,24.17,112,27c11.57,37.78,4.4,42.42-25.42,16.49Q81.94,47,77.46,50.73C96,85.62,89.81,91.59,55.51,71.93q-3.94,4.38-7.66,9c24.85,30.77,19.86,37.94-17.69,25.5-2.05,3.46-4,7-5.87,10.56C54.6,142.46,51,150.72,11.65,146.35c-.68,2-1.4,3.91-2,5.91s-1.15,4-1.73,6c34.77,19,32.94,27.84-6.5,31.31q-.79,6-1.25,12C38,212.94,38,221.68,0,232.63q.39,5.9,1.12,11.75c39.37,3.57,41,12,5.82,30q1.51,5.64,3.32,11.18c39.3-4.12,42.5,3.79,11.36,28.09q2.55,5.24,5.37,10.32c37.77-11.56,42.41-4.4,16.49,25.42q3.5,4.66,7.25,9.14c34.9-18.54,40.86-12.35,21.2,22q4.38,3.93,9,7.65c30.76-24.86,37.93-19.86,25.49,17.69,3.46,2,7,4,10.56,5.87,25.48-30.32,33.75-26.75,29.38,12.64,2,.68,3.91,1.4,5.91,2s4,1.16,6,1.72c19-34.77,27.84-32.94,31.32,6.51q6,.79,12,1.25c11.36-37.9,20.1-37.87,31,.14q5.9-.4,11.75-1.11c3.57-39.39,12-41,30-5.83q5.64-1.5,11.18-3.32c-4.12-39.3,3.79-42.5,28.1-11.36q5.22-2.55,10.31-5.37c-11.56-37.78-4.4-42.42,25.42-16.49q4.66-3.51,9.14-7.25c-18.54-34.9-12.35-40.87,22-21.2q3.93-4.38,7.65-9c-24.86-30.77-19.86-37.94,17.7-25.5q3.06-5.17,5.86-10.56C381.35,293.49,384.91,285.22,424.3,289.59ZM368.72,143.81a167.43,167.43,0,0,1,12.42,114.26L349,247.93a133.94,133.94,0,0,0-10.09-88.61ZM320.24,250.23A12.9,12.9,0,1,1,311.82,234,12.9,12.9,0,0,1,320.24,250.23ZM274.88,59.88A167.33,167.33,0,0,1,362.32,132l-29.87,15.56a133.9,133.9,0,0,0-67.68-55.61ZM199.19,190.12h0a33.23,33.23,0,0,0-8.3,8,0,0,0,0,0,0,0l-24.78-7.81a58.56,58.56,0,0,1,21.39-22.55Zm.56-28a58.49,58.49,0,0,1,29.38-1.86l-7.66,24.3a33.21,33.21,0,0,0-9.82.42Zm-19.37-16.36a12.91,12.91,0,1,1,5.48-17.41A12.9,12.9,0,0,1,180.38,145.74Zm-52,104.34a12.9,12.9,0,1,1-5.49,17.4A12.9,12.9,0,0,1,128.33,250.08Zm32.89-47.28,24,7.59c.2-.85.4-1.69.66-2.53a33.42,33.42,0,0,0-1,16.43l-22.86,11.9A58.5,58.5,0,0,1,161.22,202.8Zm28.91,34h0a33.42,33.42,0,0,0,11.54,10.6L194,271.66a58.56,58.56,0,0,1-26.28-23.24Zm7.81-25.11A21,21,0,1,1,211.65,238,21,21,0,0,1,197.94,211.65Zm53.61,5.57a33.73,33.73,0,0,0-2.23-11.33.08.08,0,0,0,0,.05l22.4-11.66a58.43,58.43,0,0,1,4.6,30.73l-24.79-7.81Zm-9.45-22.66h0a33.43,33.43,0,0,0-7.81-6L242,164.29a58.41,58.41,0,0,1,23,18.37ZM214.47,251.4A33.34,33.34,0,0,0,230,249.33h0l11.66,22.42a58.62,58.62,0,0,1-34.86,3.95Zm26.92-9.31,0,0a33.41,33.41,0,0,0,8.66-14c.32-1,.57-2,.79-3-.22,1-.47,2-.79,3-.26.84-.59,1.65-.91,2.45l24,7.58A58.57,58.57,0,0,1,253.29,265Zm14.18,48.12a12.9,12.9,0,1,1-5.49,17.4A12.89,12.89,0,0,1,255.57,290.21Zm52-104.34a12.91,12.91,0,1,1,5.49-17.41A12.89,12.89,0,0,1,307.61,185.87ZM250.23,115.7A12.9,12.9,0,1,1,234,124.12,12.91,12.91,0,0,1,250.23,115.7Zm11.83-59.86L252,87.89a133.84,133.84,0,0,0-87.32,6.72L149.08,64.72A167.29,167.29,0,0,1,262.06,55.84ZM140.31,193.48a12.9,12.9,0,1,1-8.42-16.19A12.91,12.91,0,0,1,140.31,193.48ZM137.05,70.74l15.52,29.81a133.9,133.9,0,0,0-59.1,66.79L61.33,157.2A167.42,167.42,0,0,1,137.05,70.74ZM64.73,286.87A167.3,167.3,0,0,1,57,169.93L89,180a133.84,133.84,0,0,0,5.57,91.28Zm96.34,89.19A167.39,167.39,0,0,1,70.74,298.9l29.82-15.52A134,134,0,0,0,171.18,344Zm24.64-55.81a12.9,12.9,0,1,1,16.19-8.43A12.91,12.91,0,0,1,185.71,320.25ZM173.88,380.1,184,348.05a133.94,133.94,0,0,0,92.63-9.14l15.52,29.81A167.37,167.37,0,0,1,173.88,380.1ZM304,362.32l-15.55-29.88a133.82,133.82,0,0,0,56.93-71.57L377.4,271A167.32,167.32,0,0,1,304,362.32Z"/></g></g></svg>