<svg xmlns="http://www.w3.org/2000/svg" viewBox="0 0 286.02 50.62"><defs><style>.cls-1{fill:#258bff;}</style></defs><g id="Capa_2" data-name="Capa 2"><g id="レイヤー_3" data-name="レイヤー 3"><path class="cls-1" d="M0,0V50.62H45.16V0ZM43.64,49.1H1.52V1.52H43.64Z"/><path class="cls-1" d="M42.4,2.76H2.76V39H42.4ZM39.64,32.13v3.35H34.18V32.13h2V13l-3.53,6.83V35.48h-4V27.53l-4.13,8H21l0-.07h0V13.28l-2.11,4V35.48H15V24.72l-2.09,3.91v6.85H5.53l3.69-7V9.82H5.82V6.16h7.06V21.61L15,17.68V6.16h4v4l2.11-4h3.44V28.82l4.17-8.09V6.16h4V13L36.2,6.16h3.44Z"/><polygon class="cls-1" points="12.11 45.03 10.79 40.53 8.6 40.53 8.6 47.12 9.96 47.12 9.96 41.93 11.39 47.12 12.8 47.12 14.24 41.93 14.24 47.12 15.6 47.12 15.6 40.53 13.41 40.53 12.11 45.03"/><polygon class="cls-1" points="26.28 40.53 24.32 40.53 21.36 43.46 21.36 40.53 19.89 40.53 19.89 47.12 21.36 47.12 21.36 45.13 22.54 44.03 24.54 47.12 26.43 47.12 23.55 43.1 26.28 40.53"/><polygon class="cls-1" points="36.41 40.53 34.45 40.53 31.49 43.46 31.49 40.53 30.02 40.53 30.02 47.12 31.49 47.12 31.49 45.13 32.67 44.03 34.67 47.12 36.56 47.12 33.68 43.1 36.41 40.53"/></g><g id="レイヤー_2" data-name="レイヤー 2"><path class="cls-1" d="M57.59,17H74.92v3.43H68.26V30.7h7.37v3.43H56.88V30.7h7.37V20.46H57.59Z"/><path class="cls-1" d="M91.82,24.49,95.32,23q2.73,5.71,4.86,10.72l-3.61,1.44c-.11-.25-.27-.63-.49-1.12s-.36-.86-.46-1.08a153.39,153.39,0,0,1-16.43,1.51L79.07,31c.47,0,1.24-.05,2.29-.12A132.27,132.27,0,0,0,85.9,15.8l3.89.71a119.4,119.4,0,0,1-4.11,14.08q3.93-.35,8.5-1C93.57,28.26,92.78,26.56,91.82,24.49Z"/><path class="cls-1" d="M122.49,18.45v3.42h-5q0,6.07-2.4,9.21c-1.6,2.09-4.13,3.45-7.59,4.06l-1.08-3.33a10.46,10.46,0,0,0,4.17-1.54,6.16,6.16,0,0,0,2.26-3.1,16.08,16.08,0,0,0,.72-5.3h-5.45a19.05,19.05,0,0,1-3.26,5.29l-3-1.91a19.93,19.93,0,0,0,4.08-10l3.73.21c-.14,1.19-.3,2.18-.47,3Z"/><path class="cls-1" d="M124.83,24.35a32.93,32.93,0,0,0,9.66-2.88,29.65,29.65,0,0,0,7.95-5.33l2.32,2.69a31.25,31.25,0,0,1-6.71,4.81V35.31h-4.11V25.56a36.37,36.37,0,0,1-8.52,2.31Z"/><path class="cls-1" d="M167.82,18.45v3.42h-5q0,6.07-2.4,9.21c-1.59,2.09-4.12,3.45-7.59,4.06l-1.08-3.33a10.46,10.46,0,0,0,4.17-1.54,6.16,6.16,0,0,0,2.26-3.1,16.08,16.08,0,0,0,.72-5.3H153.4a19.05,19.05,0,0,1-3.26,5.29l-3-1.91a19.84,19.84,0,0,0,4.08-10l3.73.21c-.14,1.19-.3,2.18-.47,3Z"/><path class="cls-1" d="M170.63,24.35a32.93,32.93,0,0,0,9.66-2.88,29.55,29.55,0,0,0,8-5.33l2.31,2.69a31,31,0,0,1-6.71,4.81V35.31h-4.1V25.56a36.58,36.58,0,0,1-8.53,2.31Z"/><path class="cls-1" d="M216.75,24.19v3h-4.4a13.44,13.44,0,0,0,4.78,4.9l-1.29,3.19a14.7,14.7,0,0,1-4.47-4.6v5.56h-3.62V30.78a18.37,18.37,0,0,1-5.38,4.55l-1.32-2.64v3.6h-3.19V28.56a14.66,14.66,0,0,1-1.62,3.58l-1.37-3.58a19.79,19.79,0,0,0,2.62-6.6h-2.07V19h2.44V15.46h3.19V19h1.89v1.76a23.43,23.43,0,0,0,1.37-5.06l3,.41c-.06.5-.16,1.14-.3,1.91h.8V15.46h3.6V18h4.78v3h-4.78v3.21Zm-9.8,3H204.1c.05.09.11.23.21.43l.2.42-2.28,1.48c-.27-.66-.67-1.6-1.18-2.85v5.45A17.12,17.12,0,0,0,207,27.24Zm-2-3.41-2.9-1.17a2.39,2.39,0,0,0,.17-.32c.09-.16.15-.29.2-.38h-1c.12.26.31.63.56,1.13l.56,1.1h5.24V21h-1.6A19.2,19.2,0,0,1,205,23.83Z"/><path class="cls-1" d="M233.09,16.92l1.61-2.16a37.53,37.53,0,0,1,3.72,2.46l-.89,1.18h1.25v2.9H232.9a49.45,49.45,0,0,0,.84,6.07,21.4,21.4,0,0,0,1.08,3.87c.35.8.64,1.2.89,1.2s.6-1.19.82-3.58l2.78,1.23a10.4,10.4,0,0,1-1.1,4.59,2.58,2.58,0,0,1-2.16,1.52,3.65,3.65,0,0,1-2.17-.72A7.29,7.29,0,0,1,232,33.14a16.27,16.27,0,0,1-1.6-4.63,49,49,0,0,1-.93-7.21H218.05V18.4H229.3c0-1.3,0-2.33,0-3.07h3.42c0,1.07,0,2.1.06,3.07h2.69C235,18.07,234.16,17.57,233.09,16.92Zm-2.74,16.66a92.47,92.47,0,0,1-11.55,2l-.41-3c1-.11,2.22-.26,3.67-.46v-6H219V23.26h9.91v2.87h-3.19v5.44c1.94-.35,3.36-.63,4.24-.84Z"/><path class="cls-1" d="M258.08,22.91v1.55H245.23V22.91a29.8,29.8,0,0,1-3.35,1.85l-1.32-3a35.59,35.59,0,0,0,8.77-6.27H254a35.78,35.78,0,0,0,8.77,6.27l-1.32,3A30.7,30.7,0,0,1,258.08,22.91Zm-16.33,6V26h19.82v3h-2.9q1.65,3.33,3.13,6.63l-3.22,1.07c-.48-1.09-.78-1.75-.88-2q-8.2.91-15.11,1.12l-.21-3,3.24-.14c.58-1,1.21-2.26,1.91-3.74Zm14.35-7.36a31.37,31.37,0,0,1-4.44-3.78,32,32,0,0,1-4.45,3.78Zm.32,10.3c-.11-.21-.27-.55-.49-1l-.49-1.05L258,29h-6.54c-.49,1.13-1,2.29-1.69,3.49C252.73,32.23,255,32,256.42,31.89Z"/><path class="cls-1" d="M271.32,18.74h2.85V20h4.33V15.6h3.64V20h3.63V23h-3.63v9.48H286v3.14H273V32.51h5.54V23h-4.83c-.2.39-.53,1-1,1.73q2.15,2.19,3.58,3.9l-2.44,2c-.67-.82-1.54-1.8-2.6-2.94v8.55H267.7V29.68a16.25,16.25,0,0,1-2.46,1.6l-.8-3.65a13.08,13.08,0,0,0,5.92-5.74H265.1V18.74h2.69V15.46h3.53Z"/></g></g></svg>