<svg xmlns="http://www.w3.org/2000/svg" viewBox="0 0 45.16 50.62"><defs><style>.cls-1{fill:#fff;}</style></defs><g id="Capa_2" data-name="Capa 2"><g id="レイヤー_3" data-name="レイヤー 3"><path class="cls-1" d="M0,0V50.62H45.16V0ZM43.64,49.1H1.52V1.52H43.64Z"/><path class="cls-1" d="M42.4,2.76H2.76V39H42.4ZM39.64,32.13v3.35H34.18V32.13h2V13l-3.53,6.83V35.48h-4V27.53l-4.13,8H21l0-.07h0V13.28l-2.11,4V35.48H15V24.72l-2.09,3.91v6.85H5.53l3.69-7V9.82H5.82V6.16h7.06V21.61L15,17.68V6.16h4v4l2.11-4h3.44V28.82l4.17-8.09V6.16h4V13L36.2,6.16h3.44Z"/><polygon class="cls-1" points="12.11 45.03 10.79 40.53 8.6 40.53 8.6 47.12 9.96 47.12 9.96 41.93 11.39 47.12 12.8 47.12 14.24 41.93 14.24 47.12 15.6 47.12 15.6 40.53 13.41 40.53 12.11 45.03"/><polygon class="cls-1" points="26.28 40.53 24.32 40.53 21.36 43.46 21.36 40.53 19.89 40.53 19.89 47.12 21.36 47.12 21.36 45.13 22.54 44.03 24.54 47.12 26.43 47.12 23.55 43.1 26.28 40.53"/><polygon class="cls-1" points="36.41 40.53 34.45 40.53 31.49 43.46 31.49 40.53 30.02 40.53 30.02 47.12 31.49 47.12 31.49 45.13 32.67 44.03 34.67 47.12 36.56 47.12 33.68 43.1 36.41 40.53"/></g></g></svg>